# xmcd
#
# Track frame offsets:
#	150
#	12694
#	24955
#	36042
#	47579
#	60506
#	74855
#	87773
#	111302
#	139226
#	151272
#	163904
#	177133
#	190552
#	205547
#	217837
#	229780
#	241228
#
# Disc length: 3773 seconds
#
# Revision: 0
# Processed by: cddbd v1.5.2PL0 Copyright (c) Steve Scherf et al.
# Submitted via: EZCDAudioConverter 1.3.4.1
#
DISCID=ed0ebb12
DTITLE=Diablos Del Ritmo 2/2
DYEAR=1900
DGENRE=
TTITLE0=Sonora Dinamita - Eco En Stereo
TTITLE1=Peyo Torres Y Sus Diablos Del Ritmo - La Veterana
TTITLE2=Sonora Tropical - Lluvia
TTITLE3=Pianonegro - La Cascada
TTITLE4=Andrés Landero - Busca La Careta
TTITLE5=Andrés Landero - La Pava Congona
TTITLE6=Alejandro Duran - Cumbia Costeña
TTITLE7=Ramiro Beltrán - Agoniza El Magdalena
TTITLE8=Cresencio Camacho - Santana En Salsa
TTITLE9=Los Alegres Diablos - La Motilona
TTITLE10=Cumbia Soledeña - El Garabato
TTITLE11=J. Alvear - Cumbia Sincelejana
TTITLE12=Juan Piña Y Su Muchachos - La Nena
TTITLE13=Roberto De La Barrera Y Su Piano - Sabrosón
TTITLE14=Los Curramberos De Guayabal - La Bulla
TTITLE15=Conjunto Típico Del Valledupar - La Pegajosa
TTITLE16=Carmelo Gutiérrez - Fantasías Del Carnaval
TTITLE17=Alfredo Gutiérrez Y Sus Estrellas - Pájaro Madrugador
EXTD=
EXTT0=
EXTT1=
EXTT2=
EXTT3=
EXTT4=
EXTT5=
EXTT6=
EXTT7=
EXTT8=
EXTT9=
EXTT10=
EXTT11=
EXTT12=
EXTT13=
EXTT14=
EXTT15=
EXTT16=
EXTT17=
PLAYORDER=
